<svg xmlns="http://www.w3.org/2000/svg" viewBox="0 0 512 512">
  <rect width="512" height="512" fill="#11151d"/>
  <rect x="72" y="104" width="368" height="228" rx="36" fill="#2f7cf6"/>
  <path d="M222 168 L318 218 L222 268 Z" fill="#ffffff"/>
  <path d="M120 360 h220 a28 28 0 0 1 28 28 v24 a28 28 0 0 1 -28 28 h-150 l-46 34 v-34 h-24 a28 28 0 0 1 -28 -28 v-24 a28 28 0 0 1 28 -28 z" fill="#e6e8ee"/>
  <circle cx="176" cy="400" r="11" fill="#11151d"/>
  <circle cx="230" cy="400" r="11" fill="#11151d"/>
  <circle cx="284" cy="400" r="11" fill="#11151d"/>
</svg>
